<svg xmlns="http://www.w3.org/2000/svg" viewBox="0 0 512 512">
  <rect width="512" height="512" rx="96" fill="#ffffff"/>
  <g transform="translate(256 256)">
    <circle r="180" fill="none" stroke="#0d9488" stroke-width="6" opacity="0.35"/>
    <g>
      <circle cx="0" cy="-180" r="22" fill="#0d9488"/>
      <circle cx="90" cy="-156" r="22" fill="#ED6E53"/>
      <circle cx="156" cy="-90" r="22" fill="#0d9488"/>
      <circle cx="180" cy="0" r="22" fill="#ED6E53"/>
      <circle cx="156" cy="90" r="22" fill="#0d9488"/>
      <circle cx="90" cy="156" r="22" fill="#ED6E53"/>
      <circle cx="0" cy="180" r="22" fill="#0d9488"/>
      <circle cx="-90" cy="156" r="22" fill="#ED6E53"/>
      <circle cx="-156" cy="90" r="22" fill="#0d9488"/>
      <circle cx="-180" cy="0" r="22" fill="#ED6E53"/>
      <circle cx="-156" cy="-90" r="22" fill="#0d9488"/>
      <circle cx="-90" cy="-156" r="22" fill="#ED6E53"/>
    </g>
    <circle r="80" fill="none" stroke="#0d9488" stroke-width="4" opacity="0.5"/>
    <g>
      <circle cx="0" cy="-80" r="14" fill="#ED6E53"/>
      <circle cx="69" cy="-40" r="14" fill="#0d9488"/>
      <circle cx="69" cy="40" r="14" fill="#ED6E53"/>
      <circle cx="0" cy="80" r="14" fill="#0d9488"/>
      <circle cx="-69" cy="40" r="14" fill="#ED6E53"/>
      <circle cx="-69" cy="-40" r="14" fill="#0d9488"/>
    </g>
  </g>
</svg>
